<?xml version="1.0" encoding="utf-8"?>
<!-- Generator: Adobe Illustrator 27.5.0, SVG Export Plug-In . SVG Version: 6.00 Build 0)  -->
<svg version="1.1" id="Layer_1" xmlns="http://www.w3.org/2000/svg" xmlns:xlink="http://www.w3.org/1999/xlink" x="0px" y="0px"
	 viewBox="0 0 500 94" style="enable-background:new 0 0 500 94;" xml:space="preserve">
<style type="text/css">
	.st0{fill:#262628;}
	.st1{fill:#E96E24;}
	.st2{fill:#F9A51A;}
	.st3{fill:#F58522;}
	.st4{fill:#CE1F26;}
	.st5{fill:#ED3425;}
	.st6{fill:#6BBD4A;}
</style>
<g>
	<path class="st0" d="M17.5,8c4,0,7.1,1.3,9.6,3.7c0.2,0.2,0.2,0.5,0,0.7l-0.6,0.7c-0.2,0.2-0.4,0.2-0.7,0c-2.3-2-5.1-3.3-8.4-3.3
		c-6.9,0-12.4,5.7-12.4,12.5c0,6.8,5.4,12.5,12.4,12.5c3.4,0,6-1.3,8.4-3.3c0.2-0.2,0.5-0.2,0.6-0.1l0.7,0.7c0.2,0.2,0.2,0.5,0,0.7
		c-2.7,2.6-6.1,3.8-9.7,3.8c-7.9,0-14.4-6.3-14.4-14.2C3.2,14.4,9.6,8,17.5,8z"/>
	<path class="st0" d="M33.6,8.9c0-0.3,0.2-0.5,0.5-0.5H35c0.3,0,0.5,0.2,0.5,0.5v12.2h17.8V8.9c0-0.3,0.2-0.5,0.5-0.5h0.8
		c0.3,0,0.5,0.2,0.5,0.5v26.7c0,0.3-0.2,0.5-0.5,0.5h-0.8c-0.3,0-0.5-0.2-0.5-0.5V22.7H35.5v12.9c0,0.3-0.2,0.5-0.5,0.5h-0.8
		c-0.3,0-0.5-0.2-0.5-0.5V8.9z"/>
	<path class="st0" d="M59.6,35.7L71.8,8.1c0.1-0.2,0.3-0.3,0.5-0.3h0.1c0.2,0,0.4,0,0.5,0.3l12.1,27.6c0.1,0.2,0.1,0.5-0.4,0.5h-1
		c-0.3,0-0.5-0.2-0.6-0.4l-3.2-7.3H64.7l-3.2,7.3c-0.1,0.2-0.3,0.4-0.6,0.4h-1.1C59.6,36.1,59.5,36,59.6,35.7z M79.2,26.9l-6.8-16
		h-0.1l-6.9,16H79.2z"/>
	<path class="st0" d="M88.9,8.9c0-0.3,0.2-0.5,0.5-0.5h0.8c0.3,0,0.5,0.2,0.5,0.5v16.9c0,5.1,3.2,8.9,8.5,8.9c5.3,0,8.6-3.7,8.6-8.8
		v-17c0-0.3,0.2-0.5,0.6-0.5h0.8c0.3,0,0.5,0.2,0.5,0.5V26c0,6.1-4.1,10.5-10.4,10.5c-6.3,0-10.4-4.4-10.4-10.5V8.9z"/>
	<path class="st0" d="M117.8,8.9c0-0.3,0.2-0.5,0.5-0.5h15.9c0.3,0,0.5,0.2,0.5,0.5v0.7c0,0.3-0.2,0.5-0.5,0.5h-14.5v12.1h12.6
		c0.3,0,0.5,0.2,0.5,0.5c0,0.4,0.1,1.2-0.5,1.2h-12.6l0,11.8c0,0.3-0.2,0.5-0.6,0.5h-0.7c-0.3,0-0.5-0.2-0.5-0.5V8.9z"/>
	<path class="st0" d="M140.6,8.9c0-0.3,0.2-0.5,0.5-0.5H157c0.3,0,0.5,0.2,0.5,0.5v0.7c0,0.3-0.2,0.5-0.5,0.5h-14.5v12.1H155
		c0.3,0,0.5,0.2,0.5,0.5c0,0.4,0.1,1.2-0.5,1.2h-12.6l0,11.8c0,0.3-0.2,0.5-0.6,0.5h-0.7c-0.3,0-0.5-0.2-0.5-0.5V8.9z"/>
	<path class="st0" d="M163.3,8.9c0-0.3,0.2-0.5,0.5-0.5h15.9c0.3,0,0.5,0.2,0.5,0.5v0.7c0,0.3-0.2,0.5-0.5,0.5h-14.5V21h12.6
		c0.3,0,0.5,0.2,0.5,0.5v0.7c0,0.3-0.2,0.5-0.5,0.5h-12.6v11.7h14.5c0.3,0,0.5,0.2,0.5,0.5v0.6c0,0.3-0.2,0.5-0.5,0.5h-15.9
		c-0.3,0-0.5-0.2-0.5-0.5V8.9z"/>
	<path class="st0" d="M186.7,8.9c0-0.3,0.2-0.5,0.5-0.5h0.8c0.3,0,0.5,0.2,0.5,0.5v16.9c0,5.1,3.2,8.9,8.5,8.9
		c5.3,0,8.6-3.7,8.6-8.8v-17c0-0.3,0.2-0.5,0.6-0.5h0.8c0.3,0,0.5,0.2,0.5,0.5V26c0,6.1-4.1,10.5-10.4,10.5
		c-6.3,0-10.4-4.4-10.4-10.5V8.9z"/>
	<path class="st0" d="M215.6,8.9c0-0.3,0.2-0.5,0.5-0.5h9.8c4.8,0,8.8,3.6,8.8,8.5c0,4-2.8,7.2-6.5,8.3l5.8,10.3
		c0.2,0.3,0.1,0.7-0.3,0.7h-1.2c-0.3,0-0.4-0.1-0.6-0.4l-5.8-10.4c-0.5,0-1,0-1.5,0h-7.3v10.2c0,0.3-0.2,0.5-0.6,0.5h-0.7
		c-0.3,0-0.5-0.2-0.5-0.5V8.9z M225.9,23.8c3.8,0,7-3,7-6.9c0-3.8-3.2-6.7-7.1-6.7h-8.3v13.6H225.9z"/>
	<path class="st0" d="M17.5,55.6c4,0,7,1.3,9.6,3.7c0.2,0.2,0.2,0.5,0,0.7c-0.2,0.2-0.4,0.5-0.6,0.7c-0.2,0.3-0.4,0.2-0.7,0
		c-2.2-2.1-5.1-3.3-8.4-3.3c-6.9,0-12.3,5.6-12.3,12.5s5.4,12.5,12.3,12.5c4.8,0,7.9-1.9,8.3-2.2v-7.5H19c-0.4,0-0.5-0.2-0.5-0.5
		v-0.8c0-0.3,0.1-0.5,0.5-0.5h8.1c0.3,0,0.5,0.2,0.5,0.5v9.2c0,0.6-0.2,0.8-0.6,1c-0.7,0.5-4.3,2.5-9.5,2.5c-8,0-14.4-6.3-14.4-14.2
		C3.2,62,9.6,55.6,17.5,55.6z"/>
	<path class="st0" d="M34.3,56.5c0-0.3,0.2-0.5,0.5-0.5h0.8c0.3,0,0.5,0.2,0.5,0.5v16.9c0,5.1,3.2,8.9,8.5,8.9
		c5.3,0,8.6-3.7,8.6-8.8v-17c0-0.3,0.2-0.5,0.6-0.5h0.8c0.3,0,0.5,0.2,0.5,0.5v17.1c0,6.1-4.1,10.5-10.4,10.5
		c-6.3,0-10.4-4.4-10.4-10.5V56.5z"/>
	<path class="st0" d="M63.2,56.5c0-0.3,0.2-0.5,0.5-0.5h0.9c0.3,0,0.5,0.2,0.5,0.5v26.7c0,0.3-0.3,0.5-0.6,0.5h-0.8
		c-0.3,0-0.5-0.2-0.5-0.5V56.5z"/>
	<path class="st0" d="M73.5,56.5c0-0.3,0.2-0.5,0.5-0.5h8.4c7.7,0,14,6.2,14,13.8c0,7.7-6.3,13.9-14,13.9H74c-0.2,0-0.5-0.2-0.5-0.5
		V56.5z M82.1,82.1c6.9,0,12.3-5.3,12.3-12.2c0-6.9-5.4-12.1-12.3-12.1h-6.7v24.4H82.1z"/>
	<path class="st0" d="M102.8,56.5c0-0.3,0.2-0.5,0.5-0.5h15.9c0.3,0,0.5,0.2,0.5,0.5v0.7c0,0.3-0.2,0.5-0.5,0.5h-14.5v10.9h12.6
		c0.3,0,0.5,0.2,0.5,0.5v0.7c0,0.3-0.2,0.5-0.5,0.5h-12.6v11.7h14.5c0.3,0,0.5,0.2,0.5,0.5v0.6c0,0.3-0.2,0.5-0.5,0.5h-15.9
		c-0.3,0-0.5-0.2-0.5-0.5V56.5z"/>
	<path class="st0" d="M124.9,80.1l0.4-0.5c0.3-0.3,0.6-0.4,0.9-0.2c0.4,0.4,3.3,3.1,7.3,3.1c3.6,0,6.7-2.4,6.7-5.3
		c0-3.5-2.9-5.1-7.7-6.7c-4.6-1.6-7.7-3.3-7.7-7.8c0-3,2.4-7,8.6-7c3.9,0,6.8,2,6.8,2c0.2,0.1,0.4,0.4,0.2,0.8
		c-0.1,0.2-0.2,0.4-0.3,0.5c-0.2,0.3-0.5,0.4-0.9,0.2c-0.1-0.1-2.8-1.9-5.8-1.9c-4.9,0-6.7,3-6.7,5.3c0,3.4,2.6,4.8,6.6,6.1
		c5.4,1.9,8.9,3.8,8.9,8.4c0,4-4.1,7.1-8.6,7.1c-4.7,0-7.9-2.8-8.4-3.3C124.7,80.7,124.5,80.5,124.9,80.1z"/>
</g>
<g>
	<path class="st1" d="M483.9,48.3h-13.2c-0.1,0-0.2,0-0.3,0c-0.1,0-0.1,0-0.2,0c-1,0.1-1.9,0.6-2.5,1.2l-22.2,16.7l-18.7-20.9
		l-2.3,14.9l13.3,18.7c1.3,2.9,4.3,4.7,7.6,4.3c2.1-0.3,3.9-1.4,5.1-3l22.7-23.9c0.1,0,0.1-0.1,0.2-0.1l10.7-4.4
		c0.9-0.4,1.8-0.8,1.8-1.8C485.7,49.1,484.9,48.3,483.9,48.3"/>
	<path class="st2" d="M433.6,58.7c0-9.5-7.7-17.1-17.1-17.1c-4.8,0-9.2,2-12.3,5.2c-3.4,2-7.3,3.2-11.5,3.2
		c-5.4,0-10.3-2.1-14.1-5.3c-3.7-1.8-5.8-1-5.8-1l0,7.7h-4.8v24.6h49.9v-0.2C426.6,75.1,433.6,67.7,433.6,58.7"/>
	<path class="st3" d="M324.4,61.5l6.2-18l-37-24.5c-1.1-1.1-2.6-1.7-4.3-1.7c-1.2,0-2.4,0.4-3.3,1l0,0l-0.3,0.3
		c-0.2,0.2-0.5,0.4-0.7,0.6l-8.8,7.8c-0.9,0.5-1.5,1.5-1.5,2.6c0,1.6,1.3,3,3,3c0.4,0,0.8-0.1,1.2-0.2l8.9-2.3L324.4,61.5z"/>
	<path class="st4" d="M330.6,43.5c-5.6,0-10,4.5-10,10.1c0,5.6,4.5,10.1,10.1,10.1c2.8,0,5.3-1.1,7.2-3L338,61l25.1-4.9l2.9-15
		L330.6,43.5z"/>
	<path class="st3" d="M368.8,44.6h-6.6c-2.4,0-4.3-0.7-5.6-2.1c-1.5-1.6-2.1-4.1-1.8-7.3c0.2-2.4,0.8-4.7,1.3-6.9
		c0.9-3.4,1.7-6.6,1.2-10c-0.8-5.4-4.7-8-7.8-9.3c-3-1.2-6.4-1-9.2,0.5c-2.6,1.4-4.4,3.9-5.1,7c-0.9,4.6,1.1,8.7,5.3,10.8
		c1.8,0.9,4,0.9,5.8,0.2c0.9-0.4,2.1-1.2,2.6-2.9c0.4-1.3,0.1-2.6-0.8-3.5c-0.9-1-3-2.2-3.7-2.1c-0.9,0.1-1.7-0.6-1.7-1.5
		c-0.1-0.9,0.6-1.7,1.5-1.7c2.3-0.2,5.3,2,6.4,3.1c1.6,1.8,2.2,4.3,1.5,6.7c-0.7,2.2-2.2,3.9-4.4,4.9c-2.6,1.1-5.9,1.1-8.5-0.2
		c-5.5-2.7-8.3-8.3-7.1-14.3c0.8-4.1,3.2-7.3,6.7-9.2c3.6-1.9,8.1-2.2,11.9-0.6c5.6,2.2,9,6.4,9.8,11.9c0.6,4-0.3,7.7-1.2,11.2
		c-0.6,2.2-1.1,4.3-1.3,6.4c-0.1,1.6-0.1,3.7,1,4.9c0.7,0.7,1.7,1.1,3.2,1.1h6.6c0.9,0,1.6,0.7,1.6,1.6
		C370.4,43.9,369.7,44.6,368.8,44.6"/>
	<path class="st2" d="M332.1,59.8l-61.7-29.6l0,0c-1-0.5-2.1-0.8-3.4-0.8c-1.6,0-3,0.5-4.2,1.4l0,0l-0.1,0.1
		c-0.7,0.5-1.3,1.1-1.8,1.8l-11.2,11.9l0.1,0.1c-0.6,0.5-0.9,1.3-0.9,2.1c0,1.6,1.3,3,3,3c0.5,0,0.9-0.1,1.3-0.3l0,0l13.3-5l57,33.6
		L332.1,59.8z"/>
	<path class="st5" d="M368.3,40.9c-3.4,0-6.6,1-9.3,2.7l-34.5,16.2l0,0c-3.8,1.5-6.5,5.1-6.5,9.4c0,5.6,4.5,10.1,10.1,10.1
		c0.6,0,1.1-0.1,1.7-0.1l38.5-3.2c9.7,0,17.5-7.8,17.5-17.5C385.9,48.7,378,40.9,368.3,40.9"/>
	<path class="st1" d="M494,40.4c0.1-0.9-0.2-1.8-0.8-2.7c-1.8-2.7-3.8-5.3-5.7-7.9c-2.3-3.1-5.6-9.2-9.9-9.3c-3.8,0-5.8,3.6-8.6,7
		c-2.2,2.7-2.6,3.4-5.6,7.1c-1.5,1.9-4,4.3-3,6.9c1.1,2.9,5.1,4.1,7.8,4.9c7.2,2,15.6,1.7,22.3-1.7C492.5,43.7,493.9,42.2,494,40.4"
		/>
	<path class="st2" d="M437.2,46.5c0,0-22.7-2.9-23.3-18.7c-0.6-15.8,16.9-16.9,22.4-4.3c1.6,3.8,3.6,8.1,6.8,10.8
		c2.7,2.2,7.5,4.6,5.2,9C446.5,46.9,440.6,46.8,437.2,46.5"/>
	<path class="st6" d="M451.7,58.9l-43-25.2c2.6-7.3-0.2-15.7-7-19.9c-7-4.3-15.9-2.8-21.1,3.1l-1.6,0c0,0-2.2,0-2.5,0
		c-0.3,0-0.8,0-1.1,0.5c-0.3,0.6,0,1.2,0,1.2l1.2,2.3l0.7,1.4c-2.7,7.3,0.1,15.8,7,20c6.9,4.2,15.7,2.8,21-2.9l44.3,23.3
		c1,0.5,2.3,0.2,2.9-0.8C453.1,60.9,452.7,59.5,451.7,58.9"/>
	<path class="st3" d="M454.8,59.8c0-2.4-2-4.4-4.4-4.4c-1,0-1.9,0.3-2.7,0.9l-22.6,13L416,49.5l-0.2,0.1c-1.1-2.9-3.9-5-7.1-5
		c-4.2,0-7.6,3.4-7.6,7.6c0,1.9,0.7,3.5,1.8,4.9l11.6,23.8c0.6,3.5,3.6,6.1,7.2,6.1c2.1,0,4-0.9,5.4-2.4l25.5-20.9
		C453.8,63,454.8,61.5,454.8,59.8"/>
</g>
</svg>
